REM DIRINDEX 1\2,1\3
REM DIRNAME folder01,folder02,folder03
TITLE ""
FILE "Track85.mp3" MP3
  TRACK 01 AUDIO
    TITLE "3:cjc140_299"
    INDEX 01 00:00:00
  TRACK 02 AUDIO
    TITLE "2:cjc140_300"
    INDEX 01 00:01:66
  TRACK 03 AUDIO
    TITLE "2:cjc140_301"
    INDEX 01 00:07:11
  TRACK 04 AUDIO
    TITLE "2:cjc140_302"
    INDEX 01 00:13:69
  TRACK 05 AUDIO
    TITLE "0:"
    INDEX 01 00:22:01
